# xmcd CD database file generated by OrangeCD 5.0
#
# Track frame offsets:
#	150
#	22035
#	43810
#	63822
#	86125
#	123495
#
# Disc length: 1901 seconds
#
# Revision: 2
# Processed by: cddbd v1.4PL0 Copyright (c) Steve Scherf et al.
# Submitted via: OrangeCD 5.0
#
DISCID=4d076b06
DTITLE=Mariah Carey - Anytime You Need A Friend
DYEAR=1994
DGENRE=Blues
TTITLE0=Anytime You Need A Friend (Soul Convention Remix)
TTITLE1=Anytime You Need A Friend (Strungapella)
TTITLE2=Anytime You Need A Friend (LP Version)
TTITLE3=Music Box
TTITLE4=Anytime You Need A Friend (C and C Extended Mix)
TTITLE5=Anytime You Need A Friend (C and C Radio Edit)
EXTD=
EXTT0=
EXTT1=
EXTT2=
EXTT3=
EXTT4=
EXTT5=
PLAYORDER=
